<?xml version="1.0" standalone="no"?>
<!DOCTYPE svg PUBLIC "-//W3C//DTD SVG 20010904//EN"
 "http://www.w3.org/TR/2001/REC-SVG-20010904/DTD/svg10.dtd">
<svg version="1.0" xmlns="http://www.w3.org/2000/svg"
 width="300.000000pt" height="300.000000pt" viewBox="0 0 300.000000 300.000000"
 preserveAspectRatio="xMidYMid meet">
<metadata>
Created by potrace 1.14, written by Peter Selinger 2001-2017
</metadata>
<g transform="translate(0.000000,300.000000) scale(0.100000,-0.100000)"
fill="#000000" stroke="none">
<path d="M2602 2716 c-84 -85 -152 -158 -152 -162 0 -11 112 -124 122 -124 9
0 318 309 318 318 0 11 -114 122 -125 122 -6 0 -79 -69 -163 -154z"/>
<path d="M1892 2637 c-45 -45 -82 -87 -82 -92 0 -17 744 -755 760 -755 17 0
170 149 170 166 0 9 -743 757 -758 762 -4 1 -44 -35 -90 -81z"/>
<path d="M1484 2570 c-54 -55 -101 -105 -103 -111 -3 -11 1058 -1081 1090
-1099 12 -7 40 16 125 101 l109 109 -550 550 c-302 302 -555 550 -561 550 -6
0 -55 -45 -110 -100z"/>
<path d="M2260 2573 l-21 -27 163 -163 c90 -90 169 -162 177 -161 8 2 23 15
35 31 l20 27 -159 160 c-88 88 -167 160 -177 160 -9 0 -26 -12 -38 -27z"/>
<path d="M1415 1597 c-193 -194 -356 -360 -364 -369 -11 -15 -1 -29 81 -112
51 -53 99 -96 106 -96 14 0 742 722 742 737 0 15 -185 193 -200 192 -8 0 -173
-159 -365 -352z"/>
<path d="M432 1517 c-56 -56 -102 -107 -102 -112 0 -6 247 -258 550 -560 l550
-550 112 112 113 113 -550 550 c-302 302 -554 550 -560 550 -6 0 -56 -46 -113
-103z"/>
<path d="M364 1108 c-46 -45 -84 -86 -84 -91 0 -16 745 -757 761 -757 17 0
169 150 169 167 0 10 -747 763 -758 763 -2 0 -42 -37 -88 -82z"/>
<path d="M411 724 c-15 -19 -18 -31 -11 -43 16 -30 308 -311 322 -311 16 0 58
41 58 56 0 17 -315 324 -332 324 -9 0 -26 -12 -37 -26z"/>
<path d="M285 396 c-85 -84 -155 -157 -155 -162 0 -12 112 -124 125 -124 13 0
315 302 315 315 0 12 -112 125 -123 125 -4 0 -77 -69 -162 -154z"/>
</g>
</svg>
