<?xml version="1.0" standalone="no"?>
<!DOCTYPE svg PUBLIC "-//W3C//DTD SVG 20010904//EN"
 "http://www.w3.org/TR/2001/REC-SVG-20010904/DTD/svg10.dtd">
<svg version="1.0" xmlns="http://www.w3.org/2000/svg"
 width="364.000000pt" height="364.000000pt" viewBox="0 0 364.000000 364.000000"
 preserveAspectRatio="xMidYMid meet">
<metadata>
Created by potrace 1.14, written by Peter Selinger 2001-2017
</metadata>
<g transform="translate(0.000000,364.000000) scale(0.100000,-0.100000)"
fill="#000000" stroke="none">
<path d="M2567 2662 c-59 -59 -107 -111 -107 -115 0 -4 19 -26 41 -48 l41 -41
109 108 c60 60 109 114 109 120 0 10 -73 84 -83 84 -1 0 -51 -48 -110 -108z"/>
<path d="M2077 2602 l-57 -58 262 -262 263 -262 60 60 60 60 -260 260 c-143
143 -262 260 -265 260 -3 0 -31 -26 -63 -58z"/>
<path d="M1792 2557 l-72 -72 383 -383 382 -382 73 73 c39 40 72 77 72 82 0
13 -742 755 -755 755 -6 0 -43 -33 -83 -73z"/>
<path d="M2337 2572 c-10 -10 -17 -23 -17 -28 0 -14 213 -224 227 -224 7 0 19
10 27 22 16 22 13 26 -96 135 -62 62 -115 113 -119 113 -3 0 -13 -8 -22 -18z"/>
<path d="M1747 1892 c-136 -136 -247 -252 -247 -257 0 -13 122 -135 135 -135
13 0 505 492 505 505 0 13 -122 135 -135 135 -6 0 -121 -111 -258 -248z"/>
<path d="M1082 1847 c-39 -40 -72 -77 -72 -82 0 -13 742 -755 755 -755 13 0
145 132 145 145 0 6 -170 180 -378 388 l-377 377 -73 -73z"/>
<path d="M1037 1562 c-31 -32 -57 -62 -57 -67 0 -13 502 -515 515 -515 6 0 36
26 68 58 l57 57 -263 263 -262 262 -58 -58z"/>
<path d="M1065 1300 c-19 -21 -17 -22 95 -135 97 -97 116 -112 132 -104 41 22
33 39 -78 150 -60 60 -114 109 -120 109 -6 0 -19 -9 -29 -20z"/>
<path d="M976 1071 l-108 -109 37 -41 c21 -22 43 -41 49 -41 6 0 60 49 120
109 l108 109 -41 41 c-22 22 -44 41 -49 41 -4 0 -56 -49 -116 -109z"/>
</g>
</svg>
